<?xml version="1.0" encoding="utf-8"?>
<!-- Generator: Adobe Illustrator 22.1.0, SVG Export Plug-In . SVG Version: 6.00 Build 0)  -->
<svg version="1.1" id="图层_1" xmlns="http://www.w3.org/2000/svg" xmlns:xlink="http://www.w3.org/1999/xlink" x="0px" y="0px"
	 viewBox="0 0 50 50" style="enable-background:new 0 0 50 50;" xml:space="preserve">
<style type="text/css">
	.st0{fill:#E8E8DF;}
	.st1{fill:#D8D5C8;}
	.st2{fill:#EBCF5D;}
	.st3{fill:#2FB093;}
	.st4{fill:#209A80;}
	.st5{enable-background:new    ;}
	.st6{fill:#FFFFFF;}
</style>
<g>
	<path fill="#E8E8DF" d="M33,0H7.2C6.3,0,5.8,0.5,5.8,1.7V49c0,0.3,0.5,1,1.3,1h35.7c0.7,0,1.3-0.5,1.3-1V11.5c0-0.7-0.2-0.8-0.2-1
		L33.7,0.2C33.5,0.2,33.3,0,33,0z"/>
	<polygon fill="#D8D5C8" points="33.5,0.2 33.5,10.7 44,10.7 	"/>
	<circle fill="#EBCF5D" cx="17" cy="12.8" r="4.2"/>
	<polygon fill="#2FB093" points="5.8,34.8 15.7,34.8 44.2,34.8 44.2,25 35.3,16.5 25.8,26.8 21,21.8 	"/>
	<path fill="#209A80" d="M42.8,49.8H7.2c-0.7,0-1.3-0.5-1.3-1.3V34.7h38.3v13.8C44.2,49.3,43.7,49.8,42.8,49.8z"/>
	<g class="st5">
		<path fill="#FFFFFF" d="M15.7,47.3c-1,0-1.7-0.3-2.5-1l1.2-1.2c0.3,0.3,0.5,0.5,1.2,0.5c1,0,1.5-0.5,1.5-1.7v-6.3h1.8V44
			C19,46.2,17.3,47.3,15.7,47.3z"/>
		<path fill="#FFFFFF" d="M24.7,43.7h-1.8v3.5H21v-9.5h3.7c2,0,3,1.3,3,2.8C27.8,42.3,26.7,43.7,24.7,43.7z M24.5,39.5h-1.7V42h1.7
			c0.8,0,1.3-0.5,1.3-1.3C26,40,25.5,39.5,24.5,39.5z"/>
		<path fill="#FFFFFF" d="M35.2,46.2c-0.7,0.7-1.7,1-2.7,1s-1.8-0.3-2.5-1c-1-1-1-2.2-1-3.7c0-1.7,0-2.8,1-3.7c0.7-0.7,1.5-1,2.5-1
			c2.2,0,3.3,1.3,3.5,3h-1.8c-0.2-0.8-0.7-1.3-1.7-1.3c-0.5,0-1,0.2-1.2,0.5c-0.3,0.3-0.5,0.8-0.5,2.7s0.2,2.2,0.5,2.7
			c0.3,0.3,0.7,0.5,1.2,0.5c0.5,0,1-0.2,1.3-0.5c0.3-0.3,0.5-0.7,0.5-1.2v-0.8h-1.8V42H36v1.3C36,44.7,35.8,45.5,35.2,46.2z"/>
	</g>
</g>
</svg>
